<?xml version="1.0" encoding="UTF-8" standalone="no"?>
<!-- Created with Inkscape (http://www.inkscape.org/) -->

<svg
   width="40.090164mm"
   height="8.7828751mm"
   viewBox="0 0 40.090164 8.7828751"
   version="1.1"
   id="svg5"
   inkscape:export-filename="happy.svg"
   inkscape:export-xdpi="250.06"
   inkscape:export-ydpi="250.06"
   xmlns:inkscape="http://www.inkscape.org/namespaces/inkscape"
   xmlns:sodipodi="http://sodipodi.sourceforge.net/DTD/sodipodi-0.dtd"
   xmlns="http://www.w3.org/2000/svg"
   xmlns:svg="http://www.w3.org/2000/svg">
  <sodipodi:namedview
     id="namedview7"
     pagecolor="#ffffff"
     bordercolor="#666666"
     borderopacity="1.0"
     inkscape:showpageshadow="2"
     inkscape:pageopacity="0.0"
     inkscape:pagecheckerboard="0"
     inkscape:deskcolor="#d1d1d1"
     inkscape:document-units="mm"
     showgrid="false"
     inkscape:zoom="9.5144352"
     inkscape:cx="55.07421"
     inkscape:cy="210.15436"
     inkscape:window-width="1920"
     inkscape:window-height="1057"
     inkscape:window-x="0"
     inkscape:window-y="360"
     inkscape:window-maximized="1"
     inkscape:current-layer="layer1" />
  <defs
     id="defs2" />
  <g
     inkscape:label="Layer 1"
     inkscape:groupmode="layer"
     id="layer1"
     transform="translate(-8.1496822,-52.66334)">
    <path
       style="fill:none;stroke:#000000;stroke-width:0.264583px;stroke-linecap:round;stroke-linejoin:miter;stroke-opacity:1"
       d="m 11.190391,52.795677 c -0.109235,0 -0.301886,-0.0016 -0.372982,0.01529 -0.316293,0.07457 -1.1571925,0.692886 -1.2541692,0.795325 -0.3434265,0.362775 -0.3717969,0.542104 -0.3670741,0.948274 0.00124,0.107328 -0.019206,0.222475 0.022942,0.321191 0.1665338,0.390038 0.5365787,0.563457 0.9253323,0.680617 0.146523,0.04416 0.30583,0.01278 0.458842,0.01529 0.721059,0.01183 1.365953,0.0021 2.06479,-0.260012 0.128977,-0.04837 0.233006,-0.154188 0.321189,-0.260008 0.359155,-0.430988 0.07174,-0.979472 -0.328836,-1.246521 -0.282047,-0.188032 -0.49833,-0.191185 -0.802974,-0.191185"
       id="path251" />
    <path
       style="fill:none;stroke:#000000;stroke-width:0.264583px;stroke-linecap:butt;stroke-linejoin:miter;stroke-opacity:1"
       d="m 15.796034,55.326663 c -0.384563,-0.02487 -0.717287,0.01143 -1.047154,0.227113 -0.08577,0.05608 -0.182335,0.10859 -0.237929,0.19467 -0.202235,0.313137 -0.05793,0.960665 0.02163,1.189654 0.05729,0.164867 0.195305,0.293563 0.324451,0.410969 0.73849,0.671354 2.706894,0.401587 3.47162,-0.03245 0.116637,-0.0662 0.237345,-0.135953 0.32445,-0.237929 0.320637,-0.375378 0.03458,-0.972817 -0.400155,-1.0815 -0.484719,-0.121179 -1.174241,0.04621 -1.633067,0.183854"
       id="path809" />
    <path
       style="fill:none;stroke:#000000;stroke-width:0.264583px;stroke-linecap:butt;stroke-linejoin:miter;stroke-opacity:1"
       d="m 8.2622198,56.226461 c 0.3800113,0.614947 0.6218833,1.34077 1.1400341,1.844844 0.4229528,0.411464 1.0422821,0.55509 1.5789921,0.800312 1.318796,0.602551 2.73165,0.595405 4.152966,0.573196 0.847788,-0.01326 1.160223,-0.04797 1.935887,-0.23793 0.193436,-0.04737 0.488246,-0.07727 0.648901,-0.237929"
       id="path811" />
    <path
       style="fill:none;stroke:#000000;stroke-width:0.264583px;stroke-linecap:butt;stroke-linejoin:miter;stroke-opacity:1"
       d="m 26.890749,55.133665 c -0.261881,0.02619 -0.315946,-0.0436 -0.403897,0.2384 -0.04299,0.137848 -0.18475,0.705941 -0.117235,0.89883 0.109827,0.313777 0.664515,0.318383 0.921365,0.229176 0.190474,-0.06615 0.940401,-0.505198 1.032243,-0.63582 0.03608,-0.05132 0.03059,-0.168838 0.03059,-0.235016 0,-0.472736 -0.615683,-0.444939 -0.945494,-0.444939"
       id="path1021" />
    <path
       style="fill:none;stroke:#000000;stroke-width:0.264583px;stroke-linecap:butt;stroke-linejoin:miter;stroke-opacity:1"
       d="m 31.387478,54.991976 c -0.317815,0 -0.226758,-0.01315 -0.680778,0.107063 -0.637453,0.168796 -1.075515,0.982237 -0.52002,1.468295 0.227065,0.198683 0.58819,0.168243 0.856506,0.168243 0.552305,0 1.458376,-0.01143 1.728304,-0.610632 0.05233,-0.116168 0.02781,-0.265647 0.02781,-0.389318"
       id="path1025" />
    <path
       style="fill:none;stroke:#000000;stroke-width:0.264583px;stroke-linecap:butt;stroke-linejoin:miter;stroke-opacity:1"
       d="m 28.406598,58.181541 c -0.441878,0.252656 -0.769295,0.596813 -0.9299,1.095536 -0.04075,0.126545 -0.02127,0.265044 -0.03059,0.397664 -0.0019,0.02666 -0.0762,0.655262 -0.03059,0.764736 0.02968,0.07123 0.334788,0.367863 0.367072,0.397663 0.787196,0.726649 1.792012,0.555442 2.584813,-0.06118 0.175799,-0.136734 0.541639,-0.409101 0.657674,-0.565904 0.248613,-0.335965 0.35527,-1.32869 0,-1.636538 -0.238424,-0.206597 -0.652015,-0.186533 -0.93922,-0.230113 -0.217387,-0.03299 -0.577382,-0.146066 -0.789535,-0.01876"
       id="path1027" />
    <path
       style="fill:none;stroke:#000000;stroke-width:0.264583px;stroke-linecap:butt;stroke-linejoin:miter;stroke-opacity:1"
       d="m 39.021501,56.327817 c -0.269267,0.21399 -0.250277,0.418105 -0.250277,0.742982 0,0.276064 -0.02011,0.490635 0.183536,0.703543 0.196905,0.205854 0.411731,0.221078 0.675981,0.221078 0.557398,0 1.083956,-0.342826 1.126546,-0.938496 0.0083,-0.115975 0.04371,-0.24107 0,-0.348811 -0.12005,-0.295896 -0.621562,-0.286014 -0.851064,-0.194214"
       id="path1029" />
    <path
       style="fill:none;stroke:#000000;stroke-width:0.264583px;stroke-linecap:butt;stroke-linejoin:miter;stroke-opacity:1"
       d="m 43.00897,54.411104 c -0.429654,-0.10297 -0.909322,0.348769 -1.11229,0.682289 -0.296209,0.486741 -0.07096,1.544828 0.581197,1.636538 0.670346,0.09427 0.636418,0.03133 1.162402,-0.214127 0.152948,-0.07138 0.314571,-0.126532 0.458843,-0.214125 0.34072,-0.206864 0.858735,-0.609775 1.040043,-0.978866 0.122052,-0.248462 0.315481,-0.849124 0.03059,-1.085926 -0.12142,-0.10092 -0.527521,0.01339 -0.614063,0.02781"
       id="path1031" />
    <path
       style="fill:none;stroke:#000000;stroke-width:0.264583px;stroke-linecap:butt;stroke-linejoin:miter;stroke-opacity:1"
       d="m 41.455509,60.627267 c -0.02788,-0.183311 -0.06726,-0.326392 0.01807,-0.519324 0.252534,-0.570952 0.819949,-1.061842 1.315347,-1.407118 0.631161,-0.439901 1.341953,-0.93472 2.125969,-1.055338 0.322956,-0.04969 1.663647,-0.03059 1.758897,-0.03059 0.255133,0 1.433764,-0.131077 1.433764,0.232899"
       id="path1033" />
  </g>
</svg>
